<svg xmlns="http://www.w3.org/2000/svg">
    <symbol id="facebook" viewBox="0 0 20 20">
        <path d="M13.2,19.1v-7.4h2.5l0.4-2.9h-2.9V7c0-0.8,0.2-1.4,1.4-1.4l1.5,0V3c-0.3,0-1.2-0.1-2.2-0.1c-2.2,0-3.7,1.3-3.7,3.8v2.1H7.7
    v2.9h2.5v7.4H13.2"/>
    </symbol>

    <symbol id="twitter" viewBox="0 0 20 20">
        <path d="M16.4,7.1c0-0.1,0-0.3,0-0.4c0.7-0.5,1.2-1.1,1.7-1.7c-0.6,0.3-1.3,0.4-1.9,0.5c0.7-0.4,1.2-1.1,1.5-1.8
            c-0.7,0.4-1.4,0.7-2.1,0.8c-1.3-1.3-3.4-1.4-4.7-0.1c-0.9,0.8-1.2,2-1,3.1C7.2,7.4,4.7,6.1,3,4.1c-0.9,1.5-0.4,3.4,1,4.4
            C3.5,8.4,3,8.3,2.6,8l0,0c0,1.6,1.1,3,2.7,3.3c-0.5,0.1-1,0.2-1.5,0.1c0.4,1.4,1.7,2.3,3.1,2.3c-1.2,0.9-2.6,1.4-4.1,1.4
            c-0.3,0-0.5,0-0.8,0c1.5,1,3.3,1.5,5.1,1.5c5.2,0,9.4-4.1,9.5-9.3C16.4,7.3,16.4,7.2,16.4,7.1z"/>
    </symbol>

    <symbol id="instagram" viewBox="0 0 20 20">
        <path d="M10,3.4c2.1,0,2.4,0,3.2,0c0.8,0,1.2,0.2,1.5,0.3c0.4,0.1,0.6,0.3,0.9,0.6s0.5,0.5,0.6,0.9
        c0.1,0.3,0.2,0.7,0.3,1.5c0,0.8,0,1.1,0,3.2s0,2.4,0,3.2c0,0.8-0.2,1.2-0.3,1.5c-0.1,0.4-0.3,0.6-0.6,0.9c-0.3,0.3-0.5,0.5-0.9,0.6
        c-0.3,0.1-0.7,0.2-1.5,0.3c-0.8,0-1.1,0-3.2,0s-2.4,0-3.2,0c-0.8,0-1.2-0.2-1.5-0.3c-0.4-0.1-0.6-0.3-0.9-0.6
        c-0.3-0.3-0.5-0.5-0.6-0.9c-0.1-0.3-0.2-0.7-0.3-1.5c0-0.8,0-1.1,0-3.2s0-2.4,0-3.2c0-0.8,0.2-1.2,0.3-1.5c0.1-0.4,0.3-0.6,0.6-0.9
        c0.3-0.3,0.5-0.5,0.9-0.6C5.6,3.6,6,3.5,6.8,3.5C7.6,3.4,7.8,3.4,10,3.4 M10,2c-2.2,0-2.4,0-3.3,0c-0.8,0-1.4,0.2-1.9,0.4
        c-0.5,0.2-1,0.5-1.4,0.9S2.6,4.2,2.4,4.7C2.2,5.3,2.1,5.8,2.1,6.7C2,7.5,2,7.8,2,10s0,2.4,0,3.3c0,0.8,0.2,1.4,0.4,1.9
        c0.2,0.5,0.5,1,0.9,1.4s0.9,0.7,1.4,0.9c0.5,0.2,1.1,0.3,1.9,0.4c0.9,0,1.1,0,3.3,0s2.4,0,3.3,0c0.8,0,1.4-0.2,1.9-0.4
        c0.5-0.2,1-0.5,1.4-0.9c0.4-0.4,0.7-0.9,0.9-1.4c0.2-0.5,0.3-1.1,0.4-1.9c0-0.8,0-1.1,0-3.3s0-2.4,0-3.3c0-0.8-0.2-1.4-0.4-1.9
        c-0.2-0.5-0.5-1-0.9-1.4c-0.4-0.4-0.9-0.7-1.4-0.9c-0.5-0.2-1.1-0.3-1.9-0.4C12.4,2,12.1,2,10,2"/>
        <path d="M10,5.9c-2.3,0-4.1,1.8-4.1,4.1S7.7,14,10,14s4.1-1.8,4.1-4.1S12.2,5.9,10,5.9L10,5.9z M10,12.6
            c-1.5,0-2.7-1.2-2.7-2.7S8.5,7.3,10,7.3s2.7,1.2,2.7,2.7S11.4,12.6,10,12.6L10,12.6z"/>
        <path d="M15.2,5.7c0,0.5-0.4,1-1,1s-1-0.4-1-1s0.4-1,1-1S15.2,5.2,15.2,5.7"/>
    </symbol>

    <symbol id="google-plus" viewBox="0 0 25 20">
        <path d="M8,9v2.4h4c-0.2,1-1.2,3-4,3c-2.4,0-4.4-2-4.4-4.4s2-4.4,4.4-4.4c1.4,0,2.3,0.6,2.8,1.1l1.9-1.8
    C11.5,3.7,9.9,3,8,3c-3.9,0-7,3.1-7,7s3.1,7,7,7c4.1,0,6.8-2.8,6.8-6.9c0-0.5-0.1-0.8-0.1-1.2H8V9z"/>
        <polyline points="23.1,9 21.1,9 21.1,7 19.1,7 19.1,9 17.1,9 17.1,11 19.1,11 19.1,13 21.1,13 21.1,11 23.1,11 "/>
    </symbol>

    <symbol id="linkedin" viewBox="0 0 20 20">
            <path d="M2.75,17.49v-10H5.86v10ZM4.3,6.12A1.81,1.81,0,1,1,6.1,4.31,1.81,1.81,0,0,1,4.3,6.12ZM17.5,17.49H14.39V12.62c0-1.16,0-2.65-1.61-2.65s-1.87,1.26-1.87,2.57v4.95H7.81v-10h3V8.85h0a3.27,3.27,0,0,1,2.94-1.61c3.15,0,3.73,2.07,3.73,4.76Z"/>
    </symbol>

    <symbol id="youtube" viewBox="0 0 20 20">
        <polygon class="st0" points="8.3,7.7 12.7,10.6 13.3,10.3 "/>
        <path d="M10.2,4c0,0-3.9,0-6.5,0.2l0,0c-0.4,0-1.2,0-1.9,0.8l0,0C1.4,5.5,1.2,6.8,1.2,6.8l0,0c0,0-0.2,1.5-0.2,3l0,0
            v1.4c0,1.5,0.2,3,0.2,3l0,0c0,0,0.2,1.3,0.7,1.8l0,0c0.7,0.7,1.6,0.7,2,0.8l0,0c1.5,0.1,6.4,0.2,6.4,0.2l0,0c0,0,3.9,0,6.5-0.2l0,0
            c0.4,0,1.2,0,1.9-0.8l0,0c0.6-0.6,0.7-1.8,0.7-1.8l0,0c0,0,0.2-1.5,0.2-3l0,0V9.8c0-1.5-0.2-3-0.2-3l0,0c0,0-0.2-1.3-0.7-1.8l0,0
            c-0.7-0.7-1.5-0.7-1.9-0.8l0,0C14.1,4,10.3,4,10.2,4L10.2,4L10.2,4z M8.3,7.7l5,2.6l-5,2.6V7.7z"/>
    </symbol>

    <symbol id="shopping-bag" viewBox="0 0 15 15">
        <path d="M9.4,5c0-0.6,0-3-2.3-3c0,0,0,0,0,0c0,0,0,0,0,0c0,0,0,0,0,0c0,0,0,0,0,0C4.8,2,4.8,4.4,4.9,5H3v6.1c0,1.1,0.9,2,2,2h4.4
    c1.1,0,2-0.9,2-2V5H9.4z M5.5,5c0-0.6,0.1-2.4,1.7-2.5c1.6,0,1.7,1.9,1.7,2.5H5.5z"/>
    </symbol>

    <symbol id="magnifying-glass" viewBox="0 0 22 22">
        <path d="M18.3,16.9l-4.8-5c1.6-2.3,1.3-5.5-0.7-7.6c-2.3-2.4-6.1-2.5-8.5-0.2c-2.4,2.3-2.4,6.1-0.1,8.5c2.1,2.1,5.3,2.5,7.7,0.9
    l4.8,5c0.4,0.4,1.1,0.5,1.6,0C18.7,18,18.7,17.3,18.3,16.9z M11.5,11.6c-1.7,1.6-4.4,1.6-6-0.2S3.8,7,5.5,5.4s4.4-1.6,6,0.2
    S13.2,9.9,11.5,11.6z"/>
    </symbol>

    <symbol id="arrow" viewBox="0 0 40 40">
        <path d="M25.6,20.4L13.8,32.2l1.7,1.7l13.6-13.6l-1.7-1.7l-12-12l-1.7,1.7L25.6,20.4z"/>
    </symbol>

    <symbol id="arrow-btn" viewBox="0 0 18 18">
        <path d="M9,0C4,0,0,4,0,9s4,9,9,9s9-4,9-9S14,0,9,0z M7.7,14.4L7,13.7L11.7,9L7,4.3l0.7-0.7l4.7,4.7L13,9L7.7,14.4z"/>
    </symbol>

    <symbol id="download-btn" viewBox="0 0 18 18">
        <path d="M9,0C4,0,0,4,0,9s4,9,9,9s9-4,9-9S14,0,9,0z M8.3,9V4h1.4v5h2.4L9,12.1L5.8,9H8.3z M14,13.9H4v-3.6h1v2.6h8v-2.6h1V13.9z"/>
    </symbol>

    <symbol id="whatsapp" viewBox="0 0 20 20">
        <path d="M14.1236584,11.786588 C13.899766,11.6750492 12.79874,11.1359593 12.5934552,11.0615003 C12.3882134,10.9871696 12.2389232,10.9500043 12.0896329,11.1730391 C11.9403427,11.3961167 11.5112086,11.8981695 11.3805259,12.0469164 C11.2499292,12.1955778 11.1192895,12.2142674 10.8953542,12.1026858 C10.6714618,11.991147 9.94984951,11.7558378 9.09450338,10.996493 C8.42875669,10.4055256 7.979339,9.67573347 7.84869932,9.45257035 C7.71810262,9.22949277 7.83481886,9.10888718 7.94693692,8.99777607 C8.04766699,8.89791292 8.17087225,8.73744761 8.28281842,8.60730476 C8.39480757,8.47720469 8.43210863,8.38418442 8.50675374,8.23552305 C8.58139885,8.08673338 8.54409778,7.95663331 8.48810321,7.84509452 C8.43210863,7.73351296 7.98423799,6.63651527 7.79764671,6.1902318 C7.61586847,5.75570952 7.43125397,5.81455821 7.29378149,5.80767257 C7.16331371,5.80121461 7.0138516,5.79984604 6.86460436,5.79984604 C6.71531414,5.79984604 6.47268532,5.85561543 6.2674435,6.07869301 C6.06215871,6.30181336 5.48364839,6.84103156 5.48364839,7.93794372 C5.48364839,9.03498418 6.28609403,10.0946882 6.39808318,10.2434351 C6.51002936,10.3922248 7.97714735,12.6432726 10.2235912,13.6086306 C10.7578387,13.8382944 11.1750262,13.9754084 11.5002073,14.0780943 C12.0366895,14.2477547 12.5248264,14.2238046 12.9106861,14.1664101 C13.3409806,14.102472 14.2356046,13.6273202 14.4222818,13.1067488 C14.6088301,12.5860491 14.6088301,12.1398512 14.5528355,12.0469164 C14.4968839,11.9539389 14.3475937,11.8981695 14.1236584,11.786588 M10.0376445,17.3389359 L10.0346364,17.3389359 C8.69798617,17.3384227 7.38694821,16.9810538 6.2432064,16.3055769 L5.97122662,16.1448978 L3.15185901,16.8809341 L3.90436935,14.1452399 L3.72727523,13.864725 C2.98159769,12.6844154 2.58778781,11.3202036 2.58834646,9.91938243 C2.58997946,5.83192199 5.93169093,2.50645796 10.0406097,2.50645796 C12.0302864,2.50709948 13.9006255,3.27927466 15.3070648,4.68060902 C16.7134611,6.08185784 17.4875442,7.94448721 17.4868137,9.92536994 C17.4851377,14.0131725 14.1434262,17.3389359 10.0376445,17.3389359 M16.3774507,3.61581558 C14.685366,1.92986058 12.4350975,1.00098366 10.0375586,1 C5.09761673,1 1.0770946,5.00098366 1.07511782,9.91882645 C1.07447321,11.4908904 1.48714849,13.0252759 2.27145929,14.3779831 L1,19 L5.75107297,17.7596442 C7.06013414,18.4702335 8.53399899,18.8447951 10.0339918,18.8452656 L10.0376445,18.8452656 L10.0376875,18.8452656 C14.9771137,18.8452656 18.9980226,14.8438542 18.9999993,9.92596869 C19.0009018,7.54268241 18.0695354,5.30172782 16.3774507,3.61581558"></path>
    </symbol>

    <symbol id="plus" viewBox="0 0 24 24">
        <polygon points="17.58 12.33 12.58 12.33 12.58 17.33 10.92 17.33 10.92 12.33 5.92 12.33 5.92 10.67 10.92 10.67 10.92 5.67 12.58 5.67 12.58 10.67 17.58 10.67 17.58 12.33" style="fill-rule:evenodd"/>
    </symbol>
</svg>
