<?xml version="1.0" encoding="utf-8"?>
<!-- Generator: Adobe Illustrator 19.2.1, SVG Export Plug-In . SVG Version: 6.00 Build 0)  -->
<svg version="1.1" id="Capa_1" xmlns="http://www.w3.org/2000/svg" xmlns:xlink="http://www.w3.org/1999/xlink" x="0px" y="0px"
	 viewBox="0 0 190 52" style="enable-background:new 0 0 190 52;" xml:space="preserve">
<style type="text/css">
	.st0{fill:#1D1C1B;}
	.st1{fill:#FCBF00;}
	.st2{fill:none;stroke:#FEFEFE;stroke-width:0.575;}
	.st3{fill:#FEFEFE;}
</style>
<title>Logo-web</title>
<desc>Created with Sketch.</desc>
<g id="Logo-web">
	<g id="Logo">
		<polygon id="Fill-2" class="st0" points="137.3,51.7 189.1,51.7 189.1,0.3 137.3,0.3 		"/>
		<polygon id="Fill-3" class="st1" points="176.8,38.1 152.7,38.1 164.7,28.1 		"/>
		<path id="Stroke-4" class="st2" d="M184.4,15.9c0-0.8,0.7-1.5,1.5-1.5c0.9,0,1.5,0.7,1.5,1.5c0,0.9-0.7,1.5-1.5,1.5
			C185.1,17.4,184.4,16.7,184.4,15.9L184.4,15.9z"/>
		<path id="Fill-6" class="st3" d="M185.6,15.1h0.3c0.3,0,0.4,0.1,0.4,0.3c0,0.2-0.2,0.3-0.4,0.3h-0.2V15.1z M185.3,16.8h0.3V16h0.2
			c0.2,0,0.2,0,0.3,0.2l0.3,0.7h0.3l-0.4-0.8c-0.1-0.1-0.1-0.2-0.2-0.2v0c0.2,0,0.4-0.2,0.4-0.4c0-0.5-0.4-0.5-0.8-0.5h-0.5V16.8z"
			/>
		<path id="Fill-8" class="st3" d="M151.5,24v-4.9c0-0.7-0.6-1.3-1.3-1.3c-0.7,0-1.3,0.6-1.3,1.3V33c0,0.7,0.6,1.3,1.3,1.3
			c0.7,0,1.3-0.6,1.3-1.3V28h4.8v5.1c0,0.1,0,0.1,0,0.2l-5.7,4.7h-0.8c-3.2,0-5.8-2.2-5.8-4.9V18.9c0-2.7,2.6-4.9,5.8-4.9h0.7
			c3.2,0,5.8,2.2,5.8,4.9V24H151.5z"/>
		<path id="Fill-10" class="st3" d="M161.5,14.5h6.6l4.4,18.4l-7.7-6.5l-7.5,6.1L161.5,14.5z M166.3,25.2l-1.5-6.9l-1.4,6.9H166.3z"
			/>
		<polygon id="Fill-12" class="st3" points="171.3,14.5 183.7,14.5 183.7,19 180.1,19 180.1,38.1 178.8,38.1 174.8,34.8 174.8,19 
			171.3,19 		"/>
		<polygon id="Fill-14" class="st1" points="1,51.7 137.3,51.7 137.3,0.4 1,0.4 		"/>
		<path id="Fill-16" class="st0" d="M31.5,37.5v-13H24v4.3h2v1.9c0,1.5-0.1,3.1-2,3.1c-1.4,0-2.1-0.8-2.1-2.1V19.8
			c0-1.6,0.4-2.5,2.1-2.5c1.5,0,1.7,1.1,1.7,3.1v1.3h5.6V20c0-4.9-2.8-6.9-7.5-6.9c-5.1,0-7.4,2.4-7.4,7.6v9.8
			c0,4.3,1.5,7.6,6.2,7.6c2.4,0,3.7-0.6,4.8-2.7h0.1l0.3,2.1H31.5z"/>
		<polygon id="Fill-17" class="st0" points="46.5,37.4 46.5,32.7 39,32.7 39,27.5 45.9,27.5 45.9,22.8 39,22.8 39,18.4 46.2,18.4 
			46.2,13.6 33.4,13.6 33.4,37.4 		"/>
		<path id="Fill-18" class="st0" d="M63.1,22v-2c0-4.9-2.8-6.9-7.6-6.9c-5.1,0-7.4,2.4-7.4,7.6v9.8c0,4.9,2,7.6,7.1,7.6
			c5.7,0,8-2.9,8-7v-2.9h-5.6v2.2c0,1.5-0.2,3.4-2.1,3.4c-1.4,0-2-0.8-2-2.1l0-11.8c0-1.6,0.4-2.5,2.2-2.5c1,0,1.8,1.1,1.8,3.1V22
			H63.1z"/>
		<path id="Fill-19" class="st0" d="M79.7,20.2c0-4.6-2.6-7.1-7.5-7.1c-4.9,0-7.6,2.5-7.6,7.1v9.7c0,5.4,2,8.2,7.6,8.2
			c5.6,0,7.5-2.8,7.5-8.2V20.2z M74.2,30.3c0,1.4-0.1,3.4-1.9,3.4c-1.8,0-2-2-2-3.4v-9.8c0-1.5,0.2-3.2,2-3.2c1.8,0,2,1.7,2,3.2
			V30.3z"/>
		<polygon id="Fill-20" class="st0" points="93.5,37.4 93.5,32.7 86.7,32.7 86.7,13.6 81.2,13.6 81.2,37.4 		"/>
		<path id="Fill-21" class="st0" d="M93.6,29.5V32c0,3.1,2.1,6,7.2,6c4.6,0,7.1-2.5,7.1-7.1c0-2.9-0.8-4.5-2-5.7
			c-1.3-1.2-3.1-2-5.2-3.4c-1.1-0.8-1.8-1.5-1.7-2.9c0.1-1,0.8-1.7,1.9-1.6c1.8,0.1,1.8,2,1.8,3.4h5.1c0.3-4.5-2.2-7.7-7-7.7
			c-4.3,0-7,2.3-7,6.8c0,2.1,0.6,3.6,1.6,4.8c1,1.2,2.5,2.1,4.2,3.1c1.5,0.9,3.1,1.7,3.1,3.7c0,1.2-0.6,2.4-1.9,2.4
			c-1.8,0-2.2-1.2-2.2-2.6v-1.7H93.6z"/>
		<path id="Fill-22" class="st0" d="M118.2,28.6H115l1.6-10.7h0.1L118.2,28.6z M113.8,37.4l0.7-4.6h4.4l0.8,4.6h5.6L120,13.6h-6.7
			l-5.2,23.8H113.8z"/>
	</g>
</g>
</svg>
